# 3ds Max Wavefront OBJ Exporter v0.97b - (c)2007 guruware
# File Created: 19.07.2018 15:56:19

mtllib 555.mtl

#
# object Box001
#

v  -3.2193 0.0000 12.7314
v  -3.2193 0.0000 -26.3984
v  29.0920 0.0000 -26.3984
v  29.0920 0.0000 12.7314
v  -3.2193 27.6479 12.7314
v  29.0920 27.6479 12.7314
v  29.0920 27.6479 -26.3984
v  -3.2193 27.6479 -26.3984
# 8 vertices

vn 0.0000 -1.0000 -0.0000
vn 0.0000 1.0000 -0.0000
vn 0.0000 0.0000 1.0000
vn 1.0000 0.0000 -0.0000
vn 0.0000 0.0000 -1.0000
vn -1.0000 0.0000 -0.0000
# 6 vertex normals

vt 1.0000 0.0000 0.0000
vt 1.0000 1.0000 0.0000
vt 0.0000 1.0000 0.0000
vt 0.0000 0.0000 0.0000
# 4 texture coords

g Box001
usemtl wire_177148027
s 2
f 1/1/1 2/2/1 3/3/1 4/4/1 
s 4
f 5/4/2 6/1/2 7/2/2 8/3/2 
s 8
f 1/4/3 4/1/3 6/2/3 5/3/3 
s 16
f 4/4/4 3/1/4 7/2/4 6/3/4 
s 32
f 3/4/5 2/1/5 8/2/5 7/3/5 
s 64
f 2/4/6 1/1/6 5/2/6 8/3/6 
# 6 polygons

#
# object Box002
#

v  -37.0072 0.0000 41.1921
v  -37.0072 0.0000 7.0655
v  -7.7509 0.0000 7.0655
v  -7.7509 0.0000 41.1921
v  -37.0072 22.7503 41.1921
v  -7.7509 22.7503 41.1921
v  -7.7509 22.7503 7.0655
v  -37.0072 22.7503 7.0655
# 8 vertices

vn 0.0000 -1.0000 -0.0000
vn 0.0000 1.0000 -0.0000
vn 0.0000 0.0000 1.0000
vn 1.0000 0.0000 -0.0000
vn 0.0000 0.0000 -1.0000
vn -1.0000 0.0000 -0.0000
# 6 vertex normals

vt 1.0000 0.0000 0.0000
vt 1.0000 1.0000 0.0000
vt 0.0000 1.0000 0.0000
vt 0.0000 0.0000 0.0000
# 4 texture coords

g Box002
usemtl Material__51
s 2
f 9/5/7 10/6/7 11/7/7 12/8/7 
usemtl wire_006135006
s 4
f 13/8/8 14/5/8 15/6/8 16/7/8 
usemtl Material__61
s 8
f 9/8/9 12/5/9 14/6/9 13/7/9 
usemtl Material__53
s 16
f 12/8/10 11/5/10 15/6/10 14/7/10 
usemtl Material__55
s 32
f 11/8/11 10/5/11 16/6/11 15/7/11 
usemtl Material__52
s 64
f 10/8/12 9/5/12 13/6/12 16/7/12 
# 6 polygons

